<svg id="图层_1" data-name="图层 1" xmlns="http://www.w3.org/2000/svg" viewBox="0 0 130 130"><path d="M128.89,46.12a14.68,14.68,0,0,0-4.31-8.51c-5.21-5.22-13.09-5.8-17.55-1.33L57.75,85.76c-3,3-7.43,15.81-9.8,23.16a4.63,4.63,0,0,0-.22,1.38,4.46,4.46,0,0,0,4.46,4.45,4.58,4.58,0,0,0,1.42-.22c7.35-2.39,20.11-6.87,23.12-9.89L126,55.16A10.83,10.83,0,0,0,128.89,46.12Zm-59,53.32a10.36,10.36,0,0,0-6.73-7.13L69.5,86a18.4,18.4,0,0,1,6.86,7Zm38.7-38.87-6.94-6.91,6-6.09,6.94,6.92Z"/><path d="M79.75,108c-1,1.05-4.23,4.23-24.84,10.94a8.72,8.72,0,0,1-2.71.43h-.08a8.76,8.76,0,0,1-8.72-8.75,8.6,8.6,0,0,1,.42-2.7C50.48,87.2,53.63,84,54.66,83l47.91-48.11V13.68A11.49,11.49,0,0,0,91.1,2.2H13.65A11.49,11.49,0,0,0,2.17,13.68V117a11.49,11.49,0,0,0,11.48,11.47H91.1A11.49,11.49,0,0,0,102.57,117V85ZM23.69,33.76H83.93a4.3,4.3,0,0,1,0,8.6H23.69a4.3,4.3,0,1,1,0-8.6Zm0,25.81H55.24a4.31,4.31,0,0,1,0,8.61H23.69a4.31,4.31,0,1,1,0-8.61ZM19.38,89.69a4.31,4.31,0,0,1,4.31-4.3H43.77a4.31,4.31,0,0,1,0,8.61H23.69A4.31,4.31,0,0,1,19.38,89.69Z"/></svg>