<svg id="图层_1" data-name="图层 1" xmlns="http://www.w3.org/2000/svg" viewBox="0 0 110 110"><defs><style>.cls-1{fill:#e6fff4;}.cls-2{fill:#37c37b;}</style></defs><g id="组_1160" data-name="组 1160"><path id="路径_3787" data-name="路径 3787" class="cls-1" d="M16.11,53A38.08,38.08,0,1,0,54.19,14.91h0A38.08,38.08,0,0,0,16.11,53Z"/><path id="路径_3788" data-name="路径 3788" class="cls-2" d="M54.18,2.75A50.23,50.23,0,1,0,104.4,53,50.23,50.23,0,0,0,54.18,2.75Zm0,96.7A46.46,46.46,0,1,1,100.64,53,46.46,46.46,0,0,1,54.18,99.45Z"/><path id="路径_3801" data-name="路径 3801" class="cls-2" d="M53.64,29a1.64,1.64,0,0,1,1.07,0L72.66,35a1.68,1.68,0,0,1,1.14,1.59V57.25c0,6.13-6.33,12.55-18.78,19.62a1.69,1.69,0,0,1-1.66,0C40.91,69.81,34.57,63.4,34.57,57.25V36.62A1.68,1.68,0,0,1,35.72,35ZM49.41,40.25H46.68v2.94H44.24v2.53h1.62c-.09.58-.18,1.17-.3,1.75s-.23,1.14-.38,1.7-.29,1-.45,1.52a10.37,10.37,0,0,1-.38,1l-.13.28V57a11,11,0,0,0,1.38-2.26,20.31,20.31,0,0,0,.89-2.23l.19-.6v8.33h2.73V51.9a21.93,21.93,0,0,0,1.07,2.83,10.41,10.41,0,0,0,1.17,2l.22.28V51.94a11.23,11.23,0,0,1-.5-1.25c-.16-.47-.31-1-.46-1.52s-.26-1.11-.38-1.7l-.16-.88-.15-.88h1.63V43.19H49.41ZM64.14,57.62H52.31V60H64.14Zm-4.85-7.08H56.63c.15,1,.27,2,.35,3,.07.75.12,1.51.14,2.27l0,.77h2.68c0-1-.07-2-.16-3-.06-.67-.14-1.33-.23-2Zm4.6,0H61.23a39,39,0,0,1-.51,5.28l-.13.75h2.68c.17-1,.31-2,.42-3,.08-.75.14-1.51.18-2.26l0-.76Zm-8.67,0H52.56c.14,1,.26,2,.35,3,.07.75.11,1.51.13,2.27l0,.77h2.66c0-1-.06-2-.15-3-.06-.67-.13-1.33-.21-2Zm8.59-3.65H52.64v2.42H63.81Zm-4.07-6.56h-3a5.35,5.35,0,0,1-1.85,2,10.36,10.36,0,0,1-2.1,1l-.45.15v2.8A13.18,13.18,0,0,0,55.58,45a9.12,9.12,0,0,0,2.62-2.12A9.13,9.13,0,0,0,60.83,45a13.82,13.82,0,0,0,3.28,1.23v-2.8a10.63,10.63,0,0,1-2.52-1.15,5.31,5.31,0,0,1-1.7-1.7Z"/></g></svg>