<svg id="图层_1" data-name="图层 1" xmlns="http://www.w3.org/2000/svg" viewBox="0 0 110 110"><defs><style>.cls-1{fill:#e1eaff;}.cls-2{fill:#739bff;}.cls-3{fill:#5f94fa;}.cls-4{fill:#97bfff;}</style></defs><g id="组_1159" data-name="组 1159"><path id="路径_3781" data-name="路径 3781" class="cls-1" d="M16.72,55A38.47,38.47,0,1,0,55.19,16.51h0A38.48,38.48,0,0,0,16.72,55Z"/><path id="路径_3782" data-name="路径 3782" class="cls-2" d="M55.18,4.25A50.73,50.73,0,1,0,105.9,55h0A50.78,50.78,0,0,0,55.18,4.25Zm0,97.66A46.93,46.93,0,1,1,102.1,55,46.92,46.92,0,0,1,55.18,101.91Z"/><g id="组_1157" data-name="组 1157"><path id="路径_3799" data-name="路径 3799" class="cls-3" d="M73.1,32.48h-27a4,4,0,0,0-4,4v8.09a11.39,11.39,0,0,1,12.29,17.9,17.85,17.85,0,0,1,2,1.1l1.5-2.93A3.65,3.65,0,0,1,62.66,59a3.56,3.56,0,0,1,1.69,4.75v0L58.75,74.64a3.46,3.46,0,0,1-1.59,1.84H73.1a4,4,0,0,0,4-4v-36A4,4,0,0,0,73.1,32.48Zm-3,21.1H63c-.54,0-1-.67-1-1.5s.44-1.5,1-1.5h7.13c.53,0,1,.67,1,1.5s-.44,1.5-1,1.5Zm-.16-9H54.08A1.56,1.56,0,0,1,53,42.65a1.54,1.54,0,0,1,1.07-1.07H70a1.56,1.56,0,0,1,0,3Z"/><path id="路径_3800" data-name="路径 3800" class="cls-4" d="M61.83,60.86a1.65,1.65,0,0,0-2.15.7l-2.75,5.36a1.45,1.45,0,0,0-.47-.76c-1.32-1.32-3.87-2.34-5.65-3a9.4,9.4,0,1,0-11-.13l-.3.1c-1.78.67-4.4,1.7-5.74,3a1.43,1.43,0,0,0-.5,1.11v6.18a1.49,1.49,0,0,0,1.5,1.48H55.47A3,3,0,0,0,57,73.63h0l5.52-10.7a1.53,1.53,0,0,0-.7-2.06Z"/></g></g></svg>