<svg id="图层_1" data-name="图层 1" xmlns="http://www.w3.org/2000/svg" viewBox="0 0 130 130"><path d="M89.19,110.24V127H73.36V100.58C93.15,98,109,85.11,112.16,69H128C125.62,87.69,109.79,103.8,89.19,110.24Zm-47.51,0C20.29,103.8,5.25,87.69,2.08,69H17.92c3.17,16.11,19,29,38.8,31.58V127h-15V110.24ZM90.76,2.11C109.18,2.11,123,14.77,123,34.35c0,16.11-13.82,33.38-24.18,42.59-6.9,6.91-18.42,13.82-33.38,21.88-15-8.06-26.48-15-33.39-21.88C20.54,66.58,7.87,50.46,7.87,34.35c0-19.58,13.82-32.24,32.24-32.24,10.36,0,18.42,4.61,25.33,12.66,6.9-8,15-12.66,25.32-12.66Z"/></svg>