<svg id="图层_1" data-name="图层 1" xmlns="http://www.w3.org/2000/svg" viewBox="0 0 130 130"><path d="M124.76,88,121,87.33a25.19,25.19,0,0,0-3-5.18l1.35-3.63a5.09,5.09,0,0,0-2.23-6.18l-7.64-4.41A5.1,5.1,0,0,0,103,69.09l-2.46,3a25.14,25.14,0,0,0-3-.17,27.06,27.06,0,0,0-3,.17l-2.47-3a5.09,5.09,0,0,0-6.46-1.16L78,72.33a5.09,5.09,0,0,0-2.23,6.18l1.35,3.63a25,25,0,0,0-3,5.18L70.26,88A5.08,5.08,0,0,0,66,93v8.81a5.08,5.08,0,0,0,4.24,5l3.82.65a24.93,24.93,0,0,0,3,5.17l-1.35,3.63A5.09,5.09,0,0,0,78,122.45l7.64,4.41a5.09,5.09,0,0,0,6.47-1.16l2.46-3a25.09,25.09,0,0,0,3,.17,27.1,27.1,0,0,0,3-.17l2.47,3a5.09,5.09,0,0,0,6.47,1.17l7.64-4.41a5.11,5.11,0,0,0,2.23-6.19L118,112.66a25.93,25.93,0,0,0,3-5.18l3.8-.64a5.1,5.1,0,0,0,4.25-5V93A5.1,5.1,0,0,0,124.76,88ZM106.29,97.4a8.79,8.79,0,0,1-8.8,8.79,8.77,8.77,0,0,1-8.76-8.78v0a8.8,8.8,0,0,1,8.78-8.78h.9v5.25h-.9a3.54,3.54,0,1,0,3.54,3.54v-.9h5.24Z"/><path d="M72,114.88l.62-1.68c-.44-.69-.85-1.41-1.23-2.14l-1.76-.29a9.08,9.08,0,0,1-7.58-9V93a9.08,9.08,0,0,1,7.57-9l1.77-.3q.57-1.09,1.23-2.13L72,79.9a9.05,9.05,0,0,1,4-11l7.64-4.41a9.12,9.12,0,0,1,8.59-.26,39.73,39.73,0,1,0-59.53,6.9C14.35,77.4,1.85,89.94,1.85,104.39,1.85,125.15,27.63,128,59.42,128c6.74,0,13.21-.13,19.22-.53L76,125.92A9.07,9.07,0,0,1,72,114.88Z"/></svg>