<svg id="图层_1" data-name="图层 1" xmlns="http://www.w3.org/2000/svg" viewBox="0 0 130 130"><rect x="37.75" y="3.63" width="9.03" height="31.75" rx="4.52"/><path d="M83.67,6.49v24.1a4.66,4.66,0,0,0,4.52,4.79h0a4.67,4.67,0,0,0,4.53-4.79V6.49A4.67,4.67,0,0,0,88.19,1.7h0A4.66,4.66,0,0,0,83.67,6.49Z"/><path d="M111.36,128.15c13,0,11.59-15,11.59-31.79V55.61H7.49v58.83A13.55,13.55,0,0,0,21,128H69C86,128,105.76,128.15,111.36,128.15ZM45.25,98.94H26.31a4.52,4.52,0,1,1,0-9H45.25a4.52,4.52,0,1,1,0,9Zm9-19.51h-28a4.52,4.52,0,1,1,0-9h28a4.52,4.52,0,0,1,0,9Z"/><path d="M109.4,17.21H98.72V30.86a10.54,10.54,0,1,1-21.08,0V17.21H52.8V30.86a10.54,10.54,0,1,1-21.07,0V17.21H21A13.55,13.55,0,0,0,7.49,30.76V46.57H123V30.76A13.54,13.54,0,0,0,109.4,17.21Z"/></svg>