<svg id="图层_1" data-name="图层 1" xmlns="http://www.w3.org/2000/svg" viewBox="0 0 130 130"><path id="年检管理" d="M62.17.59a4.89,4.89,0,0,1,3,0l49.68,16.16A4.5,4.5,0,0,1,118,21V76.05c0,16.38-17.53,33.5-52,52.36a4.79,4.79,0,0,1-4.59,0c-34.48-18.83-52-35.95-52-52.37V21a4.52,4.52,0,0,1,3.17-4.25ZM38.69,15.3H25.81V27.43H14.27V37.82H21.9q-.58,3.63-1.38,7.23t-1.82,7c-.66,2.25-1.38,4.34-2.14,6.28-.57,1.45-1.17,2.78-1.77,4l-.62,1.16V84.28A45,45,0,0,0,20.71,75a80.45,80.45,0,0,0,4.2-9.18l.9-2.46V97.66H38.69V63.33A84.52,84.52,0,0,0,43.75,75a42.85,42.85,0,0,0,5.54,8.16l1,1.15V63.5A43.44,43.44,0,0,1,48,58.35c-.77-1.94-1.48-4-2.15-6.28s-1.27-4.58-1.81-7l-.78-3.63-.7-3.6h7.73V27.43H38.69Zm69.65,71.55H52.43v10h55.91ZM85.44,57.68H72.85Q73.9,63.83,74.52,70q.47,4.65.63,9.36l.08,3.15H87.92q-.09-6.27-.76-12.51-.45-4.12-1.06-8.23Zm21.75,0H94.6a136.09,136.09,0,0,1-2.42,21.74l-.63,3.11h12.68c.83-4.15,1.5-8.3,2-12.42.38-3.1.65-6.2.82-9.32l.13-3.11Zm-41,0H53.57Q54.62,63.83,55.24,70c.32,3.1.52,6.22.64,9.36L56,82.53H68.55c-.06-4.17-.3-8.35-.71-12.51q-.42-4.12-1-8.23Zm40.64-15H54v10h52.85Zm-19.27-27H73.23a23.43,23.43,0,0,1-8.78,8.06,52.2,52.2,0,0,1-9.91,4.14l-2.11.6V40a68,68,0,0,0,15.46-5.07,42,42,0,0,0,12.4-8.72,41.65,41.65,0,0,0,12.45,8.72A69,69,0,0,0,108.24,40V28.43a52.67,52.67,0,0,1-11.92-4.74,23.71,23.71,0,0,1-8-7Z"/></svg>