<svg id="图层_1" data-name="图层 1" xmlns="http://www.w3.org/2000/svg" viewBox="0 0 130 130"><path d="M124.31,37.18H113.67a3,3,0,0,0-.06-.32l-6.08-20.13a13.2,13.2,0,0,0-4.14-7.58,10.31,10.31,0,0,0-8.31-2.51l-20.73,3.8L68.55,6.8A22.11,22.11,0,0,0,54.44,2.21,16.43,16.43,0,0,0,41.7,8.39L19.25,37.05l-.08.13H5.85a3.69,3.69,0,1,0,0,7.38H16.56a7.69,7.69,0,0,0,0,1v66.87a7.53,7.53,0,0,0,7.07,7.93H108.2a7.53,7.53,0,0,0,7.06-7.93V45.52a7.69,7.69,0,0,0,0-1h9.06a3.69,3.69,0,0,0,0-7.38ZM30.23,75.61h20.9a3.7,3.7,0,1,1,0,7.39H30.24a3.7,3.7,0,1,1,0-7.39ZM26.54,58.32a3.69,3.69,0,0,1,3.69-3.69h42a3.69,3.69,0,1,1,0,7.38h-42A3.69,3.69,0,0,1,26.54,58.32ZM96.22,14a2.83,2.83,0,0,1,2.26.8,5.65,5.65,0,0,1,1.85,3.31v.48l3,10.1L83.59,16.26Z"/></svg>