<svg id="图层_1" data-name="图层 1" xmlns="http://www.w3.org/2000/svg" viewBox="0 0 110 110"><defs><style>.cls-1{fill:#ffedcb;}.cls-2{fill:#ffbd41;}.cls-3{fill:#ff981f;}.cls-4{fill:#f8a200;}.cls-5{fill:#fdc66e;}</style></defs><g id="组_1158" data-name="组 1158"><path id="路径_3777" data-name="路径 3777" class="cls-1" d="M16.45,52.94A38.47,38.47,0,1,0,54.91,14.48h0A38.46,38.46,0,0,0,16.45,52.94Z"/><path id="路径_3778" data-name="路径 3778" class="cls-2" d="M55.18,2.25A50.73,50.73,0,1,0,105.9,53,50.73,50.73,0,0,0,55.18,2.25Zm0,97.65A46.92,46.92,0,1,1,102.09,53h0A47,47,0,0,1,55.18,99.9Z"/><g id="组_1153" data-name="组 1153"><path id="路径_3796" data-name="路径 3796" class="cls-3" d="M79,45.05h-47a1.47,1.47,0,0,0-1.47,1.47h0A1.47,1.47,0,0,0,31.92,48h4.26a2.38,2.38,0,0,0,0,.38V74.92A3,3,0,0,0,39,78.07H72.57a3,3,0,0,0,2.8-3.15V48.37a2.41,2.41,0,0,0,0-.38H79a1.47,1.47,0,0,0,0-2.94ZM41.61,60.32h8.3a1.47,1.47,0,0,1,0,2.93h-8.3a1.47,1.47,0,0,1,0-2.93Zm-1.47-6.87A1.47,1.47,0,0,1,41.61,52H58.28a1.46,1.46,0,0,1,1.46,1.47h0a1.46,1.46,0,0,1-1.46,1.47H41.61a1.47,1.47,0,0,1-1.47-1.47Z"/><g id="组_1152" data-name="组 1152"><path id="路径_3798" data-name="路径 3798" class="cls-4" d="M66.75,30.58a1.47,1.47,0,0,0-1.88-.89h0L54.46,33.41,71.91,45Z"/></g><g id="组_1151" data-name="组 1151"><path id="路径_3797" data-name="路径 3797" class="cls-5" d="M53,29a2.57,2.57,0,0,0-3.6.53h0L37.81,45H74.5Z"/></g></g></g></svg>