<svg id="图层_1" data-name="图层 1" xmlns="http://www.w3.org/2000/svg" viewBox="0 0 130 130"><path d="M65,2.49a39.93,39.93,0,0,1,40,39.89c0,13.06-6.48,26.78-16.94,39.39a94.8,94.8,0,0,1-12.6,12.66C71.11,98,67.71,100,65,100c-2.36,0-5.27-1.56-8.89-4.34L55,94.79l-.45-.37A95.25,95.25,0,0,1,42,81.77C31.53,69.16,25,55.44,25,42.38A39.94,39.94,0,0,1,65,2.49Zm0,25.28a15.65,15.65,0,1,0,0,31.3h0A15.66,15.66,0,0,0,80.7,43.42h0A15.67,15.67,0,0,0,65,27.77Z"/><path d="M65,31.77a11.65,11.65,0,1,0,0,23.3h0a11.65,11.65,0,1,0,0-23.3Z"/><path d="M118,69.62A8.62,8.62,0,0,0,109.38,61h-4.11A84.88,84.88,0,0,1,91.13,84.32,99,99,0,0,1,78,97.5c-5.58,4.56-9.46,6.5-13,6.5-3.19,0-6.68-1.59-11.33-5.17l-1.15-.9L52,97.51a99.33,99.33,0,0,1-13.14-13.2A85.18,85.18,0,0,1,24.76,61H21.62A8.62,8.62,0,0,0,13,69.62L2,117.38A8.62,8.62,0,0,0,10.62,126H120.38a8.62,8.62,0,0,0,8.62-8.62Z"/></svg>