<svg id="图层_1" data-name="图层 1" xmlns="http://www.w3.org/2000/svg" viewBox="0 0 130 130"><path d="M117.36.7H12.64A11.66,11.66,0,0,0,1,12.34V117.07A11.65,11.65,0,0,0,12.64,128.7H117.36A11.65,11.65,0,0,0,129,117.07V12.34A11.66,11.66,0,0,0,117.36.7ZM38.77,93.82a4.34,4.34,0,0,1-8.68,0v0a4.34,4.34,0,0,1,8.68,0Zm0-26.19a4.34,4.34,0,0,1-8.68,0v0a4.34,4.34,0,0,1,8.68,0ZM95.55,98.16H52a4.37,4.37,0,1,1,0-8.73H95.55a4.37,4.37,0,0,1,0,8.73Zm0-26.19H52a4.36,4.36,0,1,1,0-8.72H95.55a4.36,4.36,0,0,1,0,8.72ZM9.73,29.79V12.34a2.91,2.91,0,0,1,2.91-2.91H117.36a2.91,2.91,0,0,1,2.91,2.91V29.79Z"/><path d="M31.55,15.25H22.82a4.36,4.36,0,1,0,0,8.72h8.73a4.36,4.36,0,0,0,0-8.72Z"/></svg>