<svg id="图层_1" data-name="图层 1" xmlns="http://www.w3.org/2000/svg" viewBox="0 0 130 130"><rect x="42" y="2" width="46" height="46" rx="12.2"/><rect y="85" width="42" height="42" rx="12.2"/><rect x="44" y="85" width="42" height="42" rx="12.2"/><rect x="88" y="85" width="42" height="42" rx="12.2"/><rect x="59" y="45" width="12" height="47"/><path d="M62,16h9a0,0,0,0,1,0,0V116a0,0,0,0,1,0,0H62a3,3,0,0,1-3-3V19A3,3,0,0,1,62,16Z" transform="translate(131 1) rotate(90)"/><rect x="15" y="69" width="12" height="23"/><rect x="103" y="69" width="12" height="23"/></svg>