<svg id="图层_1" data-name="图层 1" xmlns="http://www.w3.org/2000/svg" viewBox="0 0 130 130"><path d="M55.59,118.05c.66-.36,1.3-.74,1.94-1.13l1.66.62A12.11,12.11,0,0,0,74,112.18l5.46-9.55a12.29,12.29,0,0,0-2.78-15.58l-1.38-1.16c0-.37,0-.74,0-1.11s0-.77,0-1.15l1.37-1.15a12.29,12.29,0,0,0,2.78-15.57L74,57.35a12.19,12.19,0,0,0-10.53-6.14,12,12,0,0,0-4.23.77l-1.67.63q-1-.6-2-1.14l-.29-1.76a12.17,12.17,0,0,0-12-10.23H32.36a12.16,12.16,0,0,0-12,10.21l-.3,1.78q-1,.54-1.95,1.14L16.45,52a12,12,0,0,0-4.22-.76A12.19,12.19,0,0,0,1.69,57.36L.47,59.5V39.33a3.82,3.82,0,0,1-.07-.68V18A11.77,11.77,0,0,1,12.09,6.2H117.31A11.77,11.77,0,0,1,129,18v94.35a11.77,11.77,0,0,1-11.69,11.8H66.68l-.14,0H53.69a12.32,12.32,0,0,0,1.6-4.32ZM119.2,27.26A13.22,13.22,0,0,0,106.05,14H96.57A13.22,13.22,0,0,0,83.42,27.26v9.56A13.22,13.22,0,0,0,96.57,50.09h9.48A13.22,13.22,0,0,0,119.2,36.82Zm-13,60.13h7.08a4.43,4.43,0,0,0,0-8.85h-7.08a4.43,4.43,0,0,0,0,8.85ZM96.67,68.9h16.65a4.42,4.42,0,0,0,0-8.84H96.67a4.42,4.42,0,0,0,0,8.84Z"/><path d="M2.74,91.59l3.69-3.08a33.49,33.49,0,0,1-.21-3.74A31.27,31.27,0,0,1,6.44,81L2.74,78A6.41,6.41,0,0,1,1.3,69.86L6.76,60.3a6.28,6.28,0,0,1,7.66-2.79l4.5,1.68a32.15,32.15,0,0,1,6.41-3.74l.81-4.77a6.33,6.33,0,0,1,6.22-5.3H43.29a6.32,6.32,0,0,1,6.22,5.31l.8,4.76a31.48,31.48,0,0,1,6.42,3.74l4.49-1.68a6.3,6.3,0,0,1,7.67,2.79l5.46,9.56a6.4,6.4,0,0,1-1.44,8.08L69.23,81a31.43,31.43,0,0,1,.21,3.75,33.31,33.31,0,0,1-.21,3.73l3.7,3.09a6.41,6.41,0,0,1,1.44,8.09l-5.46,9.55A6.3,6.3,0,0,1,61.24,112l-4.5-1.69a31.14,31.14,0,0,1-6.41,3.74l-.8,4.76a6.32,6.32,0,0,1-6.22,5.31H32.37a6.32,6.32,0,0,1-6.22-5.3l-.81-4.77a31.14,31.14,0,0,1-6.41-3.74L14.43,112a6.3,6.3,0,0,1-7.67-2.79L1.3,99.68A6.41,6.41,0,0,1,2.74,91.59Zm29.9-5.3V84.82a5.76,5.76,0,1,1,5.76,5.8H36.93v8.62H38.4A14.44,14.44,0,0,0,48.5,74.61,14.11,14.11,0,0,0,38.42,70.4h0A14.4,14.4,0,0,0,24.11,84.82v1.47Z"/></svg>