<svg id="图层_1" data-name="图层 1" xmlns="http://www.w3.org/2000/svg" viewBox="0 0 130 130"><path d="M122.34,30.57a4.65,4.65,0,0,1-4.66-4.66V6A4.66,4.66,0,1,1,127,6V25.91A4.66,4.66,0,0,1,122.34,30.57Z"/><path d="M122.34,10.53H102.46a4.67,4.67,0,0,1,0-9.33h19.88a4.67,4.67,0,0,1,0,9.33ZM8.31,82H27.15A4.85,4.85,0,0,1,32,86.85v41.37H3.46V86.85A4.85,4.85,0,0,1,8.31,82Zm32-22H59.15A4.85,4.85,0,0,1,64,64.85v63.37H35.46V64.85A4.85,4.85,0,0,1,40.31,60Zm31,8H90.15A4.85,4.85,0,0,1,95,72.85v55.37H66.46V72.85A4.85,4.85,0,0,1,71.31,68Zm31-29h18.84A4.85,4.85,0,0,1,126,43.85v84.37H97.46V43.85A4.85,4.85,0,0,1,102.31,39Z"/><path d="M123.26,8.32h0a7,7,0,0,0-9.85-1L68.26,44.18l-17-15.4a7,7,0,0,0-9.39,0l0,0L4.4,59.33a7,7,0,1,0,8.86,10.84l33-27L63.17,58.44a7,7,0,0,0,8.36.77,7.37,7.37,0,0,0,1.73-1l49-40A7,7,0,0,0,123.26,8.32Z"/></svg>