<svg id="图层_1" data-name="图层 1" xmlns="http://www.w3.org/2000/svg" viewBox="0 0 130 130"><path d="M120.43,43.51l-7.71-1.31a50.64,50.64,0,0,0-6-10.46l2.73-7.33a10.28,10.28,0,0,0-4.51-12.5L89.47,3A10.3,10.3,0,0,0,76.39,5.35l-5,6a48.93,48.93,0,0,0-6-.35,53.18,53.18,0,0,0-6,.35l-5-6A10.29,10.29,0,0,0,41.28,3l-15.45,8.9a10.29,10.29,0,0,0-4.51,12.5L24,31.73a51.29,51.29,0,0,0-6,10.45L10.28,43.5A10.29,10.29,0,0,0,1.71,53.65V71.46a10.3,10.3,0,0,0,8.58,10.15l7.7,1.3a51.63,51.63,0,0,0,6,10.46l-2.72,7.33a10.3,10.3,0,0,0,4.51,12.5l15.45,8.91a10.29,10.29,0,0,0,13.07-2.35l5-6a50.9,50.9,0,0,0,6.05.36,55.43,55.43,0,0,0,6-.36l5,6a10.3,10.3,0,0,0,13.08,2.36l15.43-8.91a10.29,10.29,0,0,0,4.51-12.51l-2.73-7.33a51.29,51.29,0,0,0,6-10.45l7.7-1.3A10.3,10.3,0,0,0,129,71.49V53.66A10.29,10.29,0,0,0,120.43,43.51Zm-37.32,19a17.76,17.76,0,1,1-35.51,0v0A17.81,17.81,0,0,1,65.35,44.8h1.82V55.41H65.36a7.15,7.15,0,1,0,7.14,7.14V60.74H83.11Z"/></svg>