<svg id="图层_1" data-name="图层 1" xmlns="http://www.w3.org/2000/svg" viewBox="0 0 130 130"><path d="M64.79,128.76H28.16v-5.49a5.49,5.49,0,0,1,5.49-5.49H64.79Zm64.09-36.62a2.65,2.65,0,0,0-2.93-2.2,8,8,0,0,1-7.78-4,8,8,0,0,1,.55-9.16,2.47,2.47,0,0,0-.83-2.93,29.33,29.33,0,0,0-10.16-5.95,2.66,2.66,0,0,0-3.3,1.38,8.42,8.42,0,0,1-7.51,4.85,8,8,0,0,1-7.23-4.85,2.56,2.56,0,0,0-3.33-1.44l-.15.06a29.33,29.33,0,0,0-10.16,5.95,2.47,2.47,0,0,0-.57,3.45l0,0a7.9,7.9,0,0,1,.55,9.16,8.17,8.17,0,0,1-7.78,4,2.65,2.65,0,0,0-2.93,2.2,45.92,45.92,0,0,0-.55,5.86,42.46,42.46,0,0,0,.55,6,2.64,2.64,0,0,0,2.93,2.1,8.33,8.33,0,0,1,7.78,4,8.07,8.07,0,0,1-.55,9.16,2.47,2.47,0,0,0,.52,3.46l0,0a30.29,30.29,0,0,0,10.16,5.49,2.48,2.48,0,0,0,3.21-1.37,8.58,8.58,0,0,1,7.5-4.76,7.88,7.88,0,0,1,7.33,4.76,2.47,2.47,0,0,0,2.38,1.65,1,1,0,0,0,.82,0,30.61,30.61,0,0,0,10.17-5.86,2.48,2.48,0,0,0,.57-3.45l0,0a8.07,8.07,0,0,1-.55-9.16,8.32,8.32,0,0,1,7.78-4,2.65,2.65,0,0,0,2.93-2.1,47.51,47.51,0,0,0,.55-6,41.67,41.67,0,0,0,0-6.32ZM97.2,108.71a7.72,7.72,0,1,1,.28.19h-.56Z"/><path d="M128.88,9.73A9.16,9.16,0,0,0,119.72.57H9.85A9.16,9.16,0,0,0,.69,9.73v92.41a9.16,9.16,0,0,0,9.16,9.15H53a5.49,5.49,0,1,0,0-11H11.68V11.56H117.89V42.88a5.5,5.5,0,0,0,11,0Z"/><path d="M116,27.11v19.7a11.57,11.57,0,0,1-11.21,11.91,10.67,10.67,0,0,1-2.11-.17A51.17,51.17,0,0,0,93.24,57C62.85,58.5,59.59,74.16,57.48,89.72A11.36,11.36,0,0,1,47,97H25A11.57,11.57,0,0,1,13.57,85.26V27.11A11.56,11.56,0,0,1,25,15.37h79.67A11.56,11.56,0,0,1,116,27.11Z"/></svg>