<svg id="图层_1" data-name="图层 1" xmlns="http://www.w3.org/2000/svg" viewBox="0 0 130 130"><path d="M106.09,32.34l16.25-10.1c1.25-1,1.09-3.27-.35-5.12s-3.62-2.59-4.87-1.63l-16.25,10.1c-1.25,1-1.1,3.26.35,5.13S104.84,33.3,106.09,32.34Zm19,25.56L101.67,58c-1.58,0-2.86,1.92-2.85,4.27s1.29,4.27,2.87,4.26l23.47-.12c1.57,0,2.85-1.92,2.84-4.27s-1.3-4.26-2.87-4.26ZM121.24,102l-16.82-9.34c-1.28-.93-3.44-.14-4.83,1.76s-1.48,4.19-.21,5.12l16.83,9.34c1.27.93,3.43.15,4.82-1.76s1.48-4.19.21-5.12ZM94,7.27C92.67,0,87.68.62,87.68.62L35.94,35a16.89,16.89,0,0,0-1.77-.15H16.9a15.94,15.94,0,0,0-15.67,13H.94V86h.35a16,16,0,0,0,15.6,12.63H34.17a15.85,15.85,0,0,0,5.49-1l43,31.22c11.63,3.32,11.3-6.32,11.3-6.32V7.27Z"/></svg>